<svg width="21" height="22" viewBox="0 0 21 22" fill="none" xmlns="http://www.w3.org/2000/svg">
    <path fill-rule="evenodd" clip-rule="evenodd" d="M10.185 17.187C11.6433 17.187 12.8583 16.4939 13.7577 15.4538L14.0003 16.8654H16.5765L16.6082 0.53695L17.561 0.362337C19.4254 0.0207626 20.9508 1.341 20.95 3.5739V18.5349C20.95 20.5559 19.4269 21.9659 17.5656 21.6059L2.28091 18.6462C1.02671 18.4036 0 17.1739 0 15.6219V6.16372C0 4.64928 1.02822 3.39198 2.28467 3.16171L13.4406 1.1174L13.4173 5.4737C12.5668 4.65622 11.4731 4.16113 10.185 4.16113C6.88037 4.16113 4.47442 6.90984 4.47442 10.6741C4.47442 14.4629 6.87962 17.187 10.185 17.187ZM10.5496 14.3147C8.82381 14.3147 7.68185 12.8786 7.68185 10.6748C7.68185 8.47111 8.82457 7.03419 10.5496 7.03419C12.4207 7.03419 13.4173 8.47111 13.4173 10.6748C13.4173 12.8786 12.4207 14.3147 10.5496 14.3147Z" fill="#00E88F"/>
</svg>
